<mxfile host="app.diagrams.net" modified="2023-10-02T07:23:33.738Z" agent="Mozilla/5.0 (Windows NT 10.0; Win64; x64) AppleWebKit/537.36 (KHTML, like Gecko) Chrome/97.0.4692.71 Safari/537.36" version="22.0.0" etag="rWC88uAySD1U6zvCoH87" type="github">
  <diagram name="第 1 页" id="6lwzDt5sOqsOajupkuDT">
    <mxGraphModel>
      <root>
        <mxCell id="0" />
        <mxCell id="1" parent="0" />
      </root>
    </mxGraphModel>
  </diagram>
</mxfile>
